<?xml version="1.0" standalone="no"?>
<!DOCTYPE svg PUBLIC "-//W3C//DTD SVG 20010904//EN"
 "http://www.w3.org/TR/2001/REC-SVG-20010904/DTD/svg10.dtd">
<svg version="1.0" xmlns="http://www.w3.org/2000/svg"
 width="204.000000pt" height="247.000000pt" viewBox="0 0 204.000000 247.000000"
 preserveAspectRatio="xMidYMid meet">

<g transform="translate(0.000000,247.000000) scale(0.100000,-0.100000)"
fill="#000000" stroke="none">
<path d="M0 2445 c0 -29 35 -65 93 -96 21 -11 40 -26 44 -34 3 -8 13 -15 22
-15 10 0 28 -11 41 -25 13 -14 29 -24 35 -23 12 3 85 -69 85 -83 0 -4 4 -10 9
-13 20 -13 -20 108 -69 207 l-53 107 -103 0 -104 0 0 -25z"/>
<path d="M1145 2243 c-11 -3 -25 -9 -31 -14 -5 -4 -27 -6 -48 -2 -29 5 -41 1
-60 -16 -13 -12 -33 -23 -44 -24 -12 -1 -24 -7 -26 -14 -8 -19 -36 -4 -36 18
0 39 -116 14 -126 -27 -3 -13 -18 -27 -35 -33 -25 -9 -29 -8 -29 9 0 34 -12
50 -38 50 -31 0 -113 -60 -107 -78 8 -23 -24 -75 -85 -138 -29 -30 -22 -48 29
-75 50 -27 50 -32 2 -24 l-44 7 7 -28 c4 -16 25 -55 47 -86 44 -64 49 -85 19
-66 -11 7 -20 18 -20 25 0 7 -10 29 -21 50 -12 21 -30 54 -40 74 -11 19 -35
51 -55 70 -32 31 -36 32 -45 17 -6 -10 -16 -18 -23 -18 -14 0 -15 -67 -2 -88
3 -5 -1 -13 -10 -16 -24 -9 -28 -7 -15 8 17 20 -11 41 -38 27 -20 -11 -51 -64
-51 -88 0 -7 -11 -18 -25 -23 -29 -11 -32 -25 -9 -34 9 -3 17 -6 19 -6 1 0 20
22 41 50 26 34 40 46 46 37 4 -6 3 -16 -2 -21 -5 -5 -3 -18 6 -31 13 -20 13
-24 -1 -35 -22 -18 -19 -27 12 -33 40 -7 93 3 93 19 0 8 5 14 11 14 6 0 9 -6
6 -14 -3 -8 1 -17 8 -20 11 -4 12 0 5 20 -15 38 -13 40 33 36 51 -5 56 -9 61
-50 2 -18 5 -34 7 -35 2 -1 14 -8 26 -14 39 -22 66 -15 91 20 12 18 22 38 22
44 0 7 10 15 23 18 12 4 36 18 54 31 17 13 36 24 42 24 17 0 98 75 93 88 -2 8
8 12 32 12 39 0 54 14 36 35 -13 16 0 27 20 15 12 -7 12 -13 1 -33 -7 -13 -12
-30 -11 -38 5 -33 0 -40 -19 -30 -14 8 -25 6 -42 -8 -13 -9 -32 -20 -41 -24
-10 -3 -18 -11 -18 -17 0 -5 -8 -10 -19 -10 -30 0 -78 -53 -77 -86 1 -23 5
-28 21 -26 11 2 27 2 35 2 51 -5 117 2 143 15 40 20 54 19 34 -3 -38 -41 -19
-49 73 -32 38 7 57 7 66 -1 31 -26 9 -61 -41 -65 -20 -1 -47 -12 -59 -23 l-22
-21 -35 30 c-24 20 -45 29 -70 30 -22 0 -48 9 -64 22 -23 18 -30 19 -47 9 -17
-11 -23 -9 -40 8 -10 12 -23 19 -29 16 -12 -8 -12 -58 1 -71 6 -6 12 -40 15
-77 4 -63 14 -94 38 -125 18 -23 49 36 41 81 -7 43 11 50 41 17 24 -27 64 -25
115 4 23 13 50 21 61 19 10 -3 19 -7 19 -8 0 -11 -31 -58 -65 -98 -38 -45 -67
-58 -80 -36 -8 11 -35 -34 -35 -57 0 -26 -39 -126 -56 -145 -10 -11 -31 -19
-50 -19 -30 0 -33 -3 -39 -42 -4 -24 -12 -51 -17 -62 -15 -27 -28 -2 -28 52 0
46 -19 64 -45 42 -11 -10 -18 -9 -30 4 -22 22 -29 20 -45 -9 -11 -20 -10 -28
4 -49 9 -14 16 -33 16 -42 0 -9 11 -29 23 -44 19 -22 25 -44 30 -103 3 -45 14
-92 26 -118 21 -43 26 -88 12 -123 -5 -12 -19 -20 -44 -22 -35 -3 -37 -2 -31
22 9 36 -27 68 -67 60 -37 -7 -75 -43 -83 -78 -3 -16 -13 -28 -21 -28 -8 0
-15 -7 -15 -15 0 -10 -10 -15 -32 -15 -27 1 -30 2 -15 11 28 16 20 28 -12 16
-18 -6 -28 -17 -26 -26 2 -9 4 -23 4 -32 1 -22 92 -32 104 -12 4 7 13 13 18
13 6 0 7 -6 2 -13 -4 -6 -9 -23 -11 -37 -4 -30 -11 -38 -20 -23 -11 16 -67 4
-80 -18 -8 -13 -9 -19 -1 -19 5 0 8 -4 5 -9 -14 -22 25 -18 43 4 22 29 31 31
31 10 0 -21 -32 -51 -63 -59 -25 -6 -25 -7 -11 -36 11 -21 23 -30 40 -30 25 0
33 15 11 23 -9 4 -9 6 1 6 6 1 12 10 12 21 0 15 7 20 26 20 23 0 25 -2 13 -16
-10 -13 -10 -17 2 -24 11 -7 11 -14 3 -27 -8 -13 -26 -19 -68 -21 -31 -2 -56
-7 -56 -12 0 -6 -7 -10 -16 -10 -15 0 -15 -2 0 -24 19 -30 9 -39 -39 -35 -19
2 -37 0 -41 -4 -4 -4 -32 -7 -61 -7 -60 0 -93 -13 -93 -36 0 -13 -5 -12 -29 5
-16 12 -32 21 -35 21 -3 0 -6 -36 -6 -80 l0 -80 1020 0 1020 0 0 32 c0 25 -12
42 -60 89 -32 32 -57 52 -53 44 3 -8 0 -15 -6 -15 -19 0 -13 -75 9 -103 11
-14 20 -28 20 -31 0 -3 -62 -6 -138 -6 -133 0 -138 1 -165 25 -26 25 -37 65
-17 65 6 0 10 -7 10 -15 0 -13 19 -20 43 -16 4 1 16 -3 26 -9 14 -7 23 -5 36
10 10 11 22 17 26 14 5 -3 9 2 9 11 0 9 -16 23 -35 31 -23 9 -41 27 -52 50
-10 20 -27 37 -40 40 -25 7 -28 15 -12 31 7 7 3 17 -17 32 -32 25 -38 26 -54
6 -15 -17 -50 -20 -50 -4 0 8 -5 7 -16 -2 -13 -10 -17 -10 -25 2 -13 20 -11
29 6 29 8 0 15 6 15 14 0 8 9 18 20 21 13 4 20 15 20 31 0 17 9 30 29 42 20
11 32 27 36 49 5 29 10 33 38 34 18 1 36 1 40 0 7 -1 0 38 -9 48 -2 2 -23 -6
-47 -18 -24 -11 -54 -21 -68 -21 -14 0 -30 -5 -36 -11 -8 -8 -21 -7 -47 2 -32
12 -40 11 -67 -5 -16 -10 -37 -15 -46 -12 -8 4 -22 1 -29 -5 -11 -9 -18 -8
-28 1 -8 6 -25 10 -38 9 -13 -1 -47 1 -75 5 -54 8 -58 13 -53 61 3 32 60 145
73 145 16 0 91 80 97 105 3 11 15 24 25 30 11 6 48 29 83 53 35 23 65 42 67
42 6 0 60 57 71 76 6 11 20 21 30 23 10 2 25 12 32 22 7 11 22 19 32 19 10 0
22 9 25 20 14 43 85 11 85 -38 0 -19 -6 -22 -42 -23 -38 0 -41 -2 -20 -11 12
-6 22 -14 22 -18 0 -12 -41 -60 -50 -60 -22 0 -85 -54 -97 -82 -22 -52 -17
-68 20 -68 31 0 67 -24 67 -44 0 -22 82 -96 108 -96 24 0 28 10 11 27 -8 8 -7
13 2 19 7 4 14 3 17 -4 6 -18 19 -14 25 8 3 11 12 20 21 20 9 0 16 6 16 13 0
18 -21 37 -41 37 -9 0 -19 7 -23 15 -3 8 -2 15 2 15 4 0 20 12 37 26 24 20 36
24 65 19 32 -5 36 -3 47 25 6 16 18 30 27 30 8 0 19 8 25 17 5 10 13 14 17 10
5 -5 2 -12 -5 -16 -9 -6 -11 -18 -7 -34 4 -16 1 -29 -9 -37 -8 -7 -15 -21 -15
-31 0 -10 -6 -23 -12 -28 -7 -6 -26 -22 -42 -36 -16 -14 -36 -25 -45 -25 -11
0 -12 -3 -4 -8 8 -5 3 -14 -18 -27 -23 -16 -29 -27 -28 -55 1 -19 -2 -58 -5
-86 -6 -39 -2 -63 14 -108 26 -70 47 -71 66 -5 13 42 18 47 74 72 l60 26 0
284 c0 302 1 297 -45 297 -8 0 -26 5 -42 11 l-28 11 24 12 23 13 -36 22 c-20
13 -36 26 -36 29 0 4 14 13 31 21 26 11 35 11 56 0 15 -8 28 -22 31 -31 9 -37
22 -16 22 35 0 56 -12 76 -55 91 -19 7 -19 8 -2 20 10 8 17 26 17 44 0 30 -2
31 -26 22 -14 -6 -43 -10 -65 -10 -43 0 -47 -9 -24 -54 22 -42 24 -41 -115
-63 -19 -3 -40 -12 -48 -19 -11 -12 -8 -14 21 -14 78 0 123 -21 76 -35 -29
-10 -18 -29 21 -35 44 -7 52 -30 11 -30 -33 0 -40 -16 -18 -39 10 -11 8 -13
-13 -8 -14 3 -44 9 -67 13 -24 3 -48 13 -54 20 -14 17 -81 36 -136 39 -42 1
-43 0 -43 -30 0 -40 -22 -71 -68 -94 -20 -10 -50 -26 -67 -35 -16 -9 -41 -16
-55 -16 -42 -1 -117 -25 -138 -43 -24 -22 -30 -21 -34 4 -2 16 -15 26 -43 34
-104 32 -195 98 -195 140 0 8 17 26 38 39 44 30 117 29 140 -1 8 -10 16 -13
18 -8 2 6 27 8 55 6 39 -2 53 -7 56 -21 11 -43 102 -30 154 23 15 15 41 30 58
33 17 4 31 10 31 15 0 13 80 31 106 25 29 -8 104 4 104 15 0 5 -20 9 -45 9
-51 0 -60 15 -15 25 16 4 32 11 35 16 4 5 30 9 58 10 29 0 61 4 72 9 19 8 19
8 -5 18 l-25 11 28 0 c15 1 27 6 27 11 0 6 -11 8 -27 4 -39 -9 -134 -43 -156
-55 -19 -11 -137 -1 -137 11 0 3 11 13 25 20 14 7 34 28 45 47 10 18 24 33 30
33 5 0 10 9 10 20 0 23 -19 25 -72 6 -35 -12 -38 -12 -38 4 0 10 6 23 13 29 8
6 19 29 26 51 14 47 61 82 61 45 0 -9 -11 -20 -25 -25 -33 -12 -32 -30 1 -30
14 0 34 -5 44 -10 13 -7 21 -7 25 0 3 5 17 10 30 10 19 0 23 -4 18 -17 -4 -10
-11 -21 -17 -25 -6 -5 -2 -8 11 -8 12 0 36 -12 53 -26 29 -25 34 -26 73 -14
23 6 70 26 103 42 34 17 67 27 73 23 17 -10 61 22 57 43 -10 51 -52 112 -78
112 -23 0 -23 26 -1 39 17 9 17 11 -1 29 -12 14 -16 28 -11 42 4 14 1 28 -11
41 -16 18 -16 19 0 19 9 0 14 5 11 10 -3 6 -18 10 -32 10 -30 0 -52 25 -53 61
0 45 -22 77 -62 89 -22 6 -38 17 -38 26 0 8 -5 12 -10 9 -6 -4 -17 -2 -24 4
-7 6 -21 9 -30 5 -10 -4 -18 0 -22 10 -3 9 -10 16 -15 16 -4 0 -6 -6 -3 -14 3
-7 -2 -16 -10 -19 -20 -8 -10 -34 15 -40 10 -3 19 -9 19 -14 0 -10 -100 -10
-117 0 -6 4 -18 4 -26 1 -24 -9 -29 13 -9 33 10 10 22 26 25 35 9 27 -15 66
-45 72 -20 4 -28 12 -28 26 0 11 -5 20 -11 20 -5 0 -7 -4 -4 -10 4 -6 -2 -7
-17 -1 -13 4 -23 15 -23 22 0 16 -14 29 -34 29 -11 0 -11 -4 2 -18 15 -16 15
-20 -2 -46 -18 -26 -20 -27 -30 -10 -11 17 -11 16 -6 -6 5 -22 4 -23 -5 -7 -6
10 -10 39 -8 65 3 44 1 47 -22 50 -19 2 -22 1 -10 -7 20 -13 4 -29 -38 -37
-32 -6 -33 -6 -30 22 3 27 1 29 -37 31 -22 0 -49 -1 -60 -4z m-280 -176 c0 -7
4 -13 9 -14 17 -3 26 -29 26 -79 0 -60 -24 -117 -49 -112 -23 5 -35 172 -14
206 14 23 28 22 28 -1z m-265 -41 c0 -11 -62 -96 -70 -96 -30 0 -3 71 33 88
24 12 37 14 37 8z m801 -69 c-6 -40 -16 -69 -27 -78 -8 -6 -14 -18 -14 -26 0
-21 -56 -77 -69 -69 -29 19 0 97 58 154 30 30 54 39 52 19z m393 -59 c49 -49
63 -77 44 -90 -10 -6 -8 -12 7 -23 27 -21 9 -48 -36 -56 -19 -3 -51 -13 -73
-22 -21 -10 -42 -17 -47 -17 -17 0 -9 31 9 36 35 12 82 39 82 48 0 5 7 14 16
21 15 10 14 16 -6 61 -12 27 -29 57 -38 67 -31 35 1 16 42 -25z m-1097 -45 c7
-3 13 -9 13 -14 0 -11 -64 -12 -74 -1 -4 4 -22 13 -39 19 -30 12 -27 13 27 7
33 -3 65 -8 73 -11z m1001 -11 c3 -9 -2 -13 -14 -10 -9 1 -19 9 -22 16 -3 9 2
13 14 10 9 -1 19 -9 22 -16z m-480 -69 c-2 -10 -12 -18 -23 -18 -11 0 -21 8
-23 18 -3 13 3 17 23 17 20 0 26 -4 23 -17z m-229 -22 c15 -10 7 -31 -13 -31
-7 0 -23 -11 -36 -25 -13 -14 -30 -25 -37 -25 -12 0 -11 3 1 16 9 8 16 19 16
23 0 4 12 13 26 19 14 7 22 17 19 22 -8 12 5 13 24 1z m102 -37 c12 -14 11
-16 -5 -13 -11 2 -21 10 -24 17 -5 17 13 15 29 -4z m143 -64 c13 -57 23 -78
56 -112 31 -32 37 -45 28 -55 -9 -11 -5 -20 16 -42 38 -40 31 -63 -24 -81 -56
-18 -63 -31 -27 -48 15 -7 27 -18 27 -25 0 -18 -75 -57 -108 -57 -16 0 -41 -9
-56 -21 -26 -20 -56 -20 -56 0 0 5 22 22 50 37 43 23 49 30 44 50 -5 19 -1 26
19 33 24 9 25 12 16 51 -5 23 -21 69 -35 103 -27 63 -27 64 8 131 6 11 10 39
10 63 -2 65 14 52 32 -27z m361 55 c-24 -8 -125 -11 -125 -3 0 4 30 8 68 7 37
0 63 -2 57 -4z m42 -1 c-3 -3 -12 -4 -19 -1 -8 3 -5 6 6 6 11 1 17 -2 13 -5z
m-477 -258 c0 -16 -13 -32 -32 -39 -12 -4 -18 2 -23 29 -3 19 -3 39 0 44 7 12
55 -17 55 -34z m326 -51 c-3 -9 -11 -13 -16 -10 -8 5 -7 11 1 21 14 18 24 11
15 -11z m44 -110 c0 -8 -6 -15 -14 -15 -17 0 -28 14 -19 24 12 12 33 6 33 -9z
m394 -14 c4 -5 -3 -7 -14 -4 -23 6 -26 13 -6 13 8 0 17 -4 20 -9z m-1284 -768
c0 -46 -14 -93 -26 -93 -18 0 -19 81 -2 98 17 17 28 15 28 -5z m615 -53 c3 -5
1 -10 -4 -10 -6 0 -11 5 -11 10 0 6 2 10 4 10 3 0 8 -4 11 -10z m-115 -51 c0
-5 -4 -9 -10 -9 -5 0 -10 7 -10 16 0 8 5 12 10 9 6 -3 10 -10 10 -16z m210
-90 c0 -6 -4 -7 -10 -4 -5 3 -10 11 -10 16 0 6 5 7 10 4 6 -3 10 -11 10 -16z
m120 -61 c0 -10 -7 -18 -15 -18 -8 0 -15 6 -15 14 0 8 -3 22 -6 31 -6 15 -4
15 15 4 11 -8 21 -22 21 -31z m115 -16 c14 -10 65 -86 65 -96 0 -9 -102 82
-108 96 -5 10 30 10 43 0z m-1145 -12 c0 -5 -9 -10 -19 -10 -11 0 -21 -4 -23
-9 -2 -6 -17 -6 -38 -1 l-35 8 38 1 c20 1 37 6 37 11 0 6 9 10 20 10 11 0 20
-4 20 -10z m850 -54 c0 -5 -7 -3 -15 4 -8 7 -12 17 -9 22 7 10 24 -9 24 -26z
m259 -15 c-3 -7 -13 3 -23 21 l-19 33 23 -21 c12 -12 21 -27 19 -33z m-479 14
c16 -19 1 -19 -24 0 -16 12 -17 15 -4 15 8 0 21 -7 28 -15z m395 -31 c22 -24
33 -54 20 -54 -16 0 -57 27 -69 45 -28 42 12 49 49 9z m-927 -1 c-2 -14 -15
-19 -51 -21 -31 -2 -47 1 -47 9 0 7 10 9 25 7 14 -3 30 1 36 8 16 20 41 17 37
-3z m542 -35 c-1 -28 -2 -30 -11 -15 -6 10 -8 25 -5 33 9 24 16 16 16 -18z
m-710 12 c0 -5 -11 -10 -25 -10 -14 0 -25 -4 -25 -10 0 -5 -7 -10 -15 -10 -12
0 -12 3 3 19 18 20 62 28 62 11z m193 -27 c2 -5 1 -19 -3 -33 l-6 -25 -13 23
c-12 22 -8 42 9 42 5 0 11 -3 13 -7z m1005 -33 c6 0 16 -9 22 -20 10 -18 8
-20 -22 -20 -28 0 -36 5 -45 29 -13 36 -6 47 17 26 9 -8 22 -15 28 -15z
m-1278 10 c0 -5 -4 -10 -9 -10 -6 0 -13 5 -16 10 -3 6 1 10 9 10 9 0 16 -4 16
-10z m190 2 c0 -14 -58 -52 -80 -52 -31 0 -24 25 13 42 36 17 67 22 67 10z
m888 -32 c11 -18 10 -20 -18 -20 -16 0 -30 2 -30 4 0 2 -3 11 -6 20 -9 24 38
21 54 -4z m67 -10 c3 -5 1 -10 -4 -10 -6 0 -11 5 -11 10 0 6 2 10 4 10 3 0 8
-4 11 -10z"/>
<path d="M925 2230 c3 -5 8 -10 11 -10 2 0 4 5 4 10 0 6 -5 10 -11 10 -5 0 -7
-4 -4 -10z"/>
<path d="M367 2135 c4 -20 33 -58 33 -43 0 7 -31 68 -34 68 -2 0 -1 -11 1 -25z"/>
<path d="M144 1675 c4 -14 2 -25 -3 -25 -6 0 -8 -7 -4 -16 5 -13 7 -13 14 -2
5 7 9 10 9 6 0 -5 10 2 22 14 20 20 20 22 3 35 -31 22 -48 17 -41 -12z"/>
<path d="M100 1656 c-6 -9 -10 -21 -8 -28 3 -8 9 -4 17 10 15 28 9 39 -9 18z"/>
<path d="M210 1646 c0 -2 7 -6 15 -10 8 -3 15 -1 15 4 0 6 -7 10 -15 10 -8 0
-15 -2 -15 -4z"/>
<path d="M455 1631 c3 -11 1 -22 -5 -26 -8 -5 -8 -11 1 -21 20 -24 29 -16 29
26 0 30 -4 40 -16 40 -11 0 -13 -6 -9 -19z"/>
<path d="M18 1633 c-15 -4 -18 -16 -18 -66 0 -34 4 -57 8 -51 4 6 17 16 30 23
18 10 22 9 22 -4 0 -9 9 -15 23 -15 32 0 47 -13 56 -46 6 -23 4 -34 -11 -51
-20 -21 -20 -22 -2 -47 22 -30 44 -34 44 -8 0 11 9 29 20 42 11 12 17 26 15
31 -8 12 30 21 59 13 19 -4 26 -2 26 9 0 21 -27 40 -47 33 -10 -4 -26 3 -45
21 -24 23 -30 25 -38 13 -8 -12 -12 -9 -21 16 -7 17 -22 35 -33 40 -12 5 -22
19 -24 32 -3 22 -21 26 -64 15z"/>
<path d="M195 1599 c-10 -15 1 -23 20 -15 9 3 13 10 10 16 -8 13 -22 13 -30
-1z"/>
<path d="M260 1570 c0 -5 5 -10 10 -10 6 0 10 5 10 10 0 6 -4 10 -10 10 -5 0
-10 -4 -10 -10z"/>
<path d="M178 1553 c7 -3 16 -2 19 1 4 3 -2 6 -13 5 -11 0 -14 -3 -6 -6z"/>
<path d="M2013 1493 c-19 -7 -16 -20 7 -26 15 -4 20 0 20 14 0 19 -5 21 -27
12z"/>
<path d="M2027 1433 c-3 -5 -1 -17 4 -28 7 -17 8 -17 8 8 1 27 -4 34 -12 20z"/>
<path d="M1606 1397 c-17 -13 -18 -14 -2 -20 16 -6 76 17 76 28 0 11 -57 4
-74 -8z"/>
<path d="M245 1340 c-11 -5 -31 -9 -45 -10 -14 0 -34 -7 -45 -16 -20 -15 -20
-15 1 -32 11 -9 28 -29 37 -43 8 -15 28 -29 43 -32 36 -6 109 4 93 13 -9 6 -8
13 5 31 22 32 20 39 -11 40 -16 0 -22 3 -15 6 17 7 15 40 -4 47 -20 8 -34 7
-59 -4z m54 -23 c-10 -9 -79 -15 -79 -7 0 13 63 29 74 19 5 -5 8 -10 5 -12z"/>
<path d="M780 1303 c0 -16 9 -40 20 -53 l20 -23 0 35 c0 22 -7 41 -20 53 -20
18 -20 17 -20 -12z"/>
<path d="M1570 1211 c0 -11 135 -21 169 -11 20 5 12 8 -38 13 -87 9 -131 9
-131 -2z"/>
<path d="M2025 1150 c3 -5 8 -10 11 -10 2 0 4 5 4 10 0 6 -5 10 -11 10 -5 0
-7 -4 -4 -10z"/>
<path d="M0 980 c0 -93 4 -170 8 -170 5 0 14 12 21 28 20 40 30 60 43 83 11
17 10 22 -4 30 -21 11 -35 56 -43 137 -13 116 -25 63 -25 -108z"/>
<path d="M1160 1090 c0 -5 7 -10 16 -10 8 0 12 5 9 10 -3 6 -10 10 -16 10 -5
0 -9 -4 -9 -10z"/>
<path d="M233 733 c-24 -9 -13 -23 17 -23 20 0 30 5 30 15 0 15 -22 19 -47 8z"/>
<path d="M322 678 c-19 -19 -14 -28 16 -28 15 0 34 -4 41 -9 10 -7 24 -3 44
11 22 16 26 23 15 29 -20 13 -102 11 -116 -3z"/>
<path d="M270 575 c-10 -12 -9 -15 8 -15 11 0 25 7 32 15 10 12 9 15 -8 15
-11 0 -25 -7 -32 -15z"/>
<path d="M109 547 c-13 -13 -34 -29 -46 -36 -13 -6 -23 -16 -23 -22 0 -6 5 -7
10 -4 6 3 10 1 10 -5 0 -6 14 -2 30 10 17 12 30 30 30 40 0 10 6 20 13 23 6 2
9 7 6 11 -3 3 -17 -4 -30 -17z"/>
<path d="M238 543 c7 -3 16 -2 19 1 4 3 -2 6 -13 5 -11 0 -14 -3 -6 -6z"/>
<path d="M23 528 c-13 -6 -23 -15 -23 -20 0 -14 16 -9 41 12 26 21 17 25 -18
8z"/>
<path d="M47 429 c-20 -23 -16 -35 8 -26 8 4 15 16 15 27 0 25 -1 25 -23 -1z"/>
<path d="M243 432 c-52 -20 -55 -32 -8 -32 41 0 87 19 82 34 -6 17 -28 16 -74
-2z"/>
<path d="M1651 434 c0 -11 3 -14 6 -6 3 7 2 16 -1 19 -3 4 -6 -2 -5 -13z"/>
<path d="M1607 393 c-9 -45 33 -78 96 -74 29 2 19 20 -20 38 -21 10 -42 28
-48 41 -13 29 -21 28 -28 -5z"/>
<path d="M1960 340 c-12 -8 -9 -10 13 -10 16 0 26 4 22 10 -8 12 -16 12 -35 0z"/>
<path d="M135 307 c-4 -10 -5 -21 -1 -24 10 -10 18 4 13 24 -4 17 -4 17 -12 0z"/>
<path d="M216 296 c3 -9 11 -16 16 -16 13 0 5 23 -10 28 -7 2 -10 -2 -6 -12z"/>
<path d="M156 214 c-4 -11 -1 -14 11 -12 9 2 18 9 21 16 6 18 -25 15 -32 -4z"/>
<path d="M0 185 c0 -9 6 -12 15 -9 8 4 15 7 15 9 0 2 -7 5 -15 9 -9 3 -15 0
-15 -9z"/>
</g>
</svg>
